<?xml version='1.0' encoding='iso-8859-1'?>
<!DOCTYPE svg PUBLIC '-//W3C//DTD SVG 1.1//EN' 'http://www.w3.org/Graphics/SVG/1.1/DTD/svg11.dtd'>
<svg version="1.1" xmlns="http://www.w3.org/2000/svg" viewBox="0 0 446.172 446.172" xmlns:xlink="http://www.w3.org/1999/xlink" enable-background="new 0 0 446.172 446.172">
  <g>
    <path d="m425.148,19.5h-36.065c-0.032-10.757-8.791-19.5-19.556-19.5h-90.883c-10.764,0-19.523,8.743-19.556,19.5h-72.006c-0.031-10.757-8.79-19.5-19.555-19.5h-90.882c-10.765,0-19.524,8.743-19.556,19.5h-36.066c-4.143,0-7.5,3.358-7.5,7.5v372c0,4.142 3.357,7.5 7.5,7.5h6.734v32.172c0,4.142 3.357,7.5 7.5,7.5h375.656c4.143,0 7.5-3.358 7.5-7.5v-32.172h6.734c4.143,0 7.5-3.358 7.5-7.5v-372c0.001-4.142-3.356-7.5-7.499-7.5zm-146.503-9.5h90.883c5.251,0 9.524,4.257 9.556,9.5h-109.995c0.032-5.243 4.305-9.5 9.556-9.5zm-202,0h90.883c5.251,0 9.524,4.257 9.556,9.5h-109.995c0.032-5.243 4.305-9.5 9.556-9.5zm-48.122,24.5h389.125v47.018h-389.125v-47.018zm389.125,357h-389.125v-294.982h389.125v294.982zm-14.234,39.672h-360.656v-24.672h360.656v24.672z"/>
    <path d="m41.023,384h364.125c2.762,0 5-2.239 5-5v-269.982c0-2.761-2.238-5-5-5h-364.125c-2.762,0-5,2.239-5,5v269.982c0,2.761 2.239,5 5,5zm5-269.982h354.125v259.982h-354.125v-259.982z"/>
    <path d="m346.212,144.018h-246.252c-13.198,0-23.937,10.738-23.937,23.937v152.109c0,13.198 10.739,23.936 23.937,23.936h246.252c13.198,0 23.937-10.738 23.937-23.937v-152.109c-0.001-13.199-10.739-23.936-23.937-23.936zm13.936,176.045c0,7.685-6.252,13.937-13.937,13.937h-246.251c-7.685,0-13.937-6.252-13.937-13.937v-152.109c0-7.685 6.252-13.937 13.937-13.937h246.252c7.685,0 13.937,6.252 13.937,13.937v152.109z"/>
    <path d="m345.148,164.018h-244.125c-2.762,0-5,2.239-5,5v149.982c0,2.761 2.238,5 5,5h244.125c2.762,0 5-2.239 5-5v-149.982c0-2.762-2.238-5-5-5zm-5,149.982h-234.125v-139.982h234.125v139.982z"/>
    <path d="m104.086,38.009c-11.028,0-20,8.972-20,20s8.972,20 20,20 20-8.972 20-20-8.972-20-20-20zm0,30c-5.514,0-10-4.486-10-10s4.486-10 10-10 10,4.486 10,10-4.486,10-10,10z"/>
    <path d="m262.753,38.009c-11.028,0-20,8.972-20,20s8.972,20 20,20 20-8.972 20-20-8.972-20-20-20zm0,30c-5.514,0-10-4.486-10-10s4.486-10 10-10 10,4.486 10,10-4.486,10-10,10z"/>
    <path d="m183.419,38.009c-11.028,0-20,8.972-20,20s8.972,20 20,20 20-8.972 20-20-8.972-20-20-20zm0,30c-5.514,0-10-4.486-10-10s4.486-10 10-10 10,4.486 10,10-4.486,10-10,10z"/>
    <path d="m342.086,38.009c-11.028,0-20,8.972-20,20s8.972,20 20,20 20-8.972 20-20-8.972-20-20-20zm0,30c-5.514,0-10-4.486-10-10s4.486-10 10-10 10,4.486 10,10-4.486,10-10,10z"/>
    <path d="m126.086,210.009h194c2.762,0 5-2.239 5-5s-2.238-5-5-5h-194c-2.762,0-5,2.239-5,5s2.238,5 5,5z"/>
    <path d="m126.086,249.009h194c2.762,0 5-2.239 5-5s-2.238-5-5-5h-194c-2.762,0-5,2.239-5,5s2.238,5 5,5z"/>
    <path d="m126.086,288.009h194c2.762,0 5-2.239 5-5s-2.238-5-5-5h-194c-2.762,0-5,2.239-5,5s2.238,5 5,5z"/>
  </g>
</svg>
